<?xml version="1.0" encoding="UTF-8" standalone="no"?>
<svg
   width="24"
   height="24"
   viewBox="0 0 24 24"
   fill="none"
   stroke="currentColor"
   stroke-width="2"
   stroke-linecap="round"
   stroke-linejoin="round"
   class="lucide lucide-message-circle-icon lucide-message-circle"
   version="1.1"
   id="svg4"
   sodipodi:docname="message-commit-dark.svg"
   inkscape:version="1.3 (0e150ed6c4, 2023-07-21)"
   xmlns:inkscape="http://www.inkscape.org/namespaces/inkscape"
   xmlns:sodipodi="http://sodipodi.sourceforge.net/DTD/sodipodi-0.dtd"
   xmlns="http://www.w3.org/2000/svg"
   xmlns:svg="http://www.w3.org/2000/svg">
  <defs
     id="defs4" />
  <sodipodi:namedview
     id="namedview4"
     pagecolor="#ffffff"
     bordercolor="#000000"
     borderopacity="0.25"
     inkscape:showpageshadow="2"
     inkscape:pageopacity="0.0"
     inkscape:pagecheckerboard="0"
     inkscape:deskcolor="#d1d1d1"
     inkscape:zoom="32.375"
     inkscape:cx="12"
     inkscape:cy="12"
     inkscape:window-width="1920"
     inkscape:window-height="991"
     inkscape:window-x="-9"
     inkscape:window-y="-9"
     inkscape:window-maximized="1"
     inkscape:current-layer="svg4" />
  <path
     d="M 2.1176673,16.761636 A 2.1939029,2.1939029 0 0 1 2.220781,18.041778 L 1.0525277,21.65075 a 1.0969514,1.0969514 0 0 0 1.355832,1.281238 L 6.152255,21.837231 a 2.1939029,2.1939029 0 0 1 1.2055497,0.100924 10.969514,10.969514 0 1 0 -5.240137,-5.176514"
     style="fill:none;stroke:#ffffff;stroke-width:1.9;stroke-dasharray:none;stroke-opacity:1"
     id="path1" />
  <g
     style="fill:none;stroke:#00aad4;stroke-width:1.7619;stroke-linecap:round;stroke-linejoin:round;stroke-dasharray:none"
     transform="matrix(0.71761641,0,0,0.71761641,3.3886031,3.7793349)"
     id="g4">
    <circle
       cx="5"
       cy="6"
       r="3"
       style="stroke:#00aad4;stroke-width:1.7619;stroke-dasharray:none"
       id="circle1" />
    <path
       d="m 5,9 v 6"
       style="stroke:#00aad4;stroke-width:1.7619;stroke-dasharray:none"
       id="path2" />
    <circle
       cx="5"
       cy="18"
       r="3"
       style="stroke:#00aad4;stroke-width:1.7619;stroke-dasharray:none"
       id="circle2" />
    <path
       d="M 12,3 V 21"
       style="stroke:#00aad4;stroke-width:1.7619;stroke-dasharray:none"
       id="path3" />
    <circle
       cx="19"
       cy="6"
       r="3"
       style="stroke:#00aad4;stroke-width:1.7619;stroke-dasharray:none"
       id="circle3" />
    <path
       d="M 16,15.7 A 9,9 0 0 0 19,9"
       style="stroke:#00aad4;stroke-width:1.7619;stroke-dasharray:none"
       id="path4" />
  </g>
</svg>
